<svg width="50" height="50" viewBox="0 0 50 50" fill="none" xmlns="http://www.w3.org/2000/svg">
<rect width="50" height="50" rx="8" fill="#E5E5E5"/>
<mask id="path-2-outside-1_210_346" maskUnits="userSpaceOnUse" x="11" y="10" width="27" height="31" fill="black">
<rect fill="white" x="11" y="10" width="27" height="31"/>
<path d="M36.6 11.08V40H33.84C33.4133 40 33.0533 39.9333 32.76 39.8C32.48 39.6533 32.2067 39.4133 31.94 39.08L16.84 19.8C16.92 20.68 16.96 21.4933 16.96 22.24V40H12.22V11.08H15.04C15.2667 11.08 15.46 11.0933 15.62 11.12C15.7933 11.1333 15.94 11.1733 16.06 11.24C16.1933 11.2933 16.32 11.38 16.44 11.5C16.56 11.6067 16.6933 11.7533 16.84 11.94L32 31.3C31.96 30.8333 31.9267 30.3733 31.9 29.92C31.8733 29.4667 31.86 29.0467 31.86 28.66V11.08H36.6Z"/>
</mask>
<path d="M36.6 11.08V40H33.84C33.4133 40 33.0533 39.9333 32.76 39.8C32.48 39.6533 32.2067 39.4133 31.94 39.08L16.84 19.8C16.92 20.68 16.96 21.4933 16.96 22.24V40H12.22V11.08H15.04C15.2667 11.08 15.46 11.0933 15.62 11.12C15.7933 11.1333 15.94 11.1733 16.06 11.24C16.1933 11.2933 16.32 11.38 16.44 11.5C16.56 11.6067 16.6933 11.7533 16.84 11.94L32 31.3C31.96 30.8333 31.9267 30.3733 31.9 29.92C31.8733 29.4667 31.86 29.0467 31.86 28.66V11.08H36.6Z" fill="#171717"/>
<path d="M36.6 11.08H37.6C37.6 10.5277 37.1523 10.08 36.6 10.08V11.08ZM36.6 40V41C37.1523 41 37.6 40.5523 37.6 40H36.6ZM32.76 39.8L32.296 40.6858C32.3125 40.6945 32.3292 40.7027 32.3462 40.7104L32.76 39.8ZM31.94 39.08L31.1527 39.6966L31.1591 39.7047L31.94 39.08ZM16.84 19.8L17.6273 19.1834C17.3539 18.8344 16.8835 18.707 16.4714 18.8704C16.0593 19.0338 15.804 19.4491 15.8441 19.8905L16.84 19.8ZM16.96 40V41C17.5123 41 17.96 40.5523 17.96 40H16.96ZM12.22 40H11.22C11.22 40.5523 11.6677 41 12.22 41V40ZM12.22 11.08V10.08C11.6677 10.08 11.22 10.5277 11.22 11.08H12.22ZM15.62 11.12L15.4556 12.1064C15.4847 12.1112 15.5139 12.1148 15.5433 12.1171L15.62 11.12ZM16.06 11.24L15.5744 12.1142C15.6113 12.1347 15.6494 12.1528 15.6886 12.1685L16.06 11.24ZM16.44 11.5L15.7329 12.2071C15.7467 12.221 15.761 12.2344 15.7756 12.2474L16.44 11.5ZM16.84 11.94L17.6273 11.3235L17.6263 11.3222L16.84 11.94ZM32 31.3L31.2127 31.9165C31.4854 32.2648 31.9546 32.3925 32.3662 32.2305C32.7778 32.0685 33.0341 31.6553 32.9963 31.2146L32 31.3ZM31.9 29.92L32.8983 29.8613L32.8983 29.8613L31.9 29.92ZM31.86 11.08V10.08C31.3077 10.08 30.86 10.5277 30.86 11.08H31.86ZM35.6 11.08V40H37.6V11.08H35.6ZM36.6 39H33.84V41H36.6V39ZM33.84 39C33.512 39 33.3023 38.948 33.1738 38.8896L32.3462 40.7104C32.8044 40.9186 33.3147 41 33.84 41V39ZM33.224 38.9142C33.1015 38.85 32.9297 38.7164 32.7209 38.4553L31.1591 39.7047C31.4836 40.1103 31.8585 40.4567 32.296 40.6858L33.224 38.9142ZM32.7273 38.4634L17.6273 19.1834L16.0527 20.4166L31.1527 39.6966L32.7273 38.4634ZM15.8441 19.8905C15.9219 20.7457 15.96 21.5284 15.96 22.24H17.96C17.96 21.4582 17.9181 20.6143 17.8359 19.7095L15.8441 19.8905ZM15.96 22.24V40H17.96V22.24H15.96ZM16.96 39H12.22V41H16.96V39ZM13.22 40V11.08H11.22V40H13.22ZM12.22 12.08H15.04V10.08H12.22V12.08ZM15.04 12.08C15.2315 12.08 15.3665 12.0915 15.4556 12.1064L15.7844 10.1336C15.5535 10.0951 15.3019 10.08 15.04 10.08V12.08ZM15.5433 12.1171C15.5757 12.1195 15.5925 12.1236 15.5969 12.1248C15.6009 12.1258 15.5917 12.1238 15.5744 12.1142L16.5456 10.3658C16.2709 10.2132 15.9766 10.1445 15.6967 10.1229L15.5433 12.1171ZM15.6886 12.1685C15.6755 12.1632 15.6915 12.1657 15.7329 12.2071L17.1471 10.7929C16.9485 10.5943 16.7112 10.4234 16.4314 10.3115L15.6886 12.1685ZM15.7756 12.2474C15.8356 12.3007 15.9281 12.398 16.0537 12.5578L17.6263 11.3222C17.4586 11.1087 17.2844 10.9126 17.1044 10.7526L15.7756 12.2474ZM16.0527 12.5565L31.2127 31.9165L32.7873 30.6835L17.6273 11.3235L16.0527 12.5565ZM32.9963 31.2146C32.9571 30.7565 32.9244 30.3054 32.8983 29.8613L30.9017 29.9787C30.9289 30.4412 30.9629 30.9101 31.0037 31.3854L32.9963 31.2146ZM32.8983 29.8613C32.8726 29.4242 32.86 29.0241 32.86 28.66H30.86C30.86 29.0693 30.8741 29.5091 30.9017 29.9787L32.8983 29.8613ZM32.86 28.66V11.08H30.86V28.66H32.86ZM31.86 12.08H36.6V10.08H31.86V12.08Z" fill="#0A0A0A" mask="url(#path-2-outside-1_210_346)"/>
<g clip-path="url(#clip0_210_346)">
<path d="M32.9117 40.9156C32.4053 40.797 32.1522 40.7376 31.9217 40.6312C31.7172 40.5368 31.5263 40.4152 31.3544 40.2696C31.1606 40.1056 31 39.9011 30.6787 39.4922L16.2559 21.1346C15.0496 19.5992 15.3164 17.3765 16.8518 16.1702C18.3872 14.9639 20.6099 15.2307 21.8162 16.7661L36.239 35.1237C36.5602 35.5327 36.7209 35.7371 36.8344 35.9642C36.9351 36.1657 37.0081 36.3799 37.0515 36.6009C37.1003 36.8501 37.098 37.1101 37.0934 37.6301L37.056 41.8865L32.9117 40.9156Z" fill="#171717"/>
<path d="M25.0925 20.9363L19.5323 25.3048M37.056 41.8865L37.0934 37.6301C37.098 37.1101 37.1003 36.8501 37.0515 36.6009C37.0081 36.3799 36.9351 36.1657 36.8344 35.9642C36.7209 35.7371 36.5602 35.5327 36.239 35.1237L21.8162 16.7661C20.6099 15.2307 18.3872 14.9639 16.8518 16.1702C15.3164 17.3765 15.0496 19.5992 16.2559 21.1346L30.6787 39.4922C31 39.9011 31.1606 40.1056 31.3544 40.2696C31.5263 40.4152 31.7172 40.5368 31.9217 40.6312C32.1522 40.7376 32.4053 40.797 32.9117 40.9156L37.056 41.8865Z" stroke="#0A0A0A" stroke-linecap="round" stroke-linejoin="round"/>
</g>
<defs>
<clipPath id="clip0_210_346">
<rect width="30" height="30" fill="white" transform="translate(10 41.7862) rotate(-83.1553)"/>
</clipPath>
</defs>
</svg>
